<svg width="170" height="15" viewBox="0 0 170 15" fill="none" xmlns="http://www.w3.org/2000/svg">
<path d="M0.973633 14L5.71094 1.11523H8.30371L12.9707 14H10.5273L9.25293 10.3613H4.74414L3.46094 14H0.973633ZM5.3418 8.58594H8.64648C7.5918 5.20508 7.0498 3.45898 7.02051 3.34766L5.3418 8.58594Z" fill="#333333"/>
<path d="M14.1924 14V1.08887H18.9648C19.6152 1.08887 20.1777 1.11816 20.6523 1.17676C21.1328 1.23535 21.5869 1.34375 22.0146 1.50195C22.4482 1.6543 22.7969 1.8623 23.0605 2.12598C23.3301 2.38965 23.541 2.73535 23.6934 3.16309C23.8516 3.58496 23.9307 4.08594 23.9307 4.66602C23.9307 6.37695 23.1543 7.50195 21.6016 8.04102C21.918 8.39844 22.3105 9.06055 22.7793 10.0273L24.6953 14H22.0938L20.5908 10.6338C20.0225 9.42676 19.6709 8.71191 19.5361 8.48926C19.4365 8.4834 19.1055 8.48047 18.543 8.48047L16.5479 8.46289V14H14.1924ZM19.1758 6.75781C20.0898 6.75781 20.7461 6.59668 21.1445 6.27441C21.543 5.94629 21.7422 5.42188 21.7422 4.70117C21.7422 4.06836 21.54 3.60254 21.1357 3.30371C20.7314 3.00488 20.1133 2.85547 19.2812 2.85547H16.5479V6.74902C16.6357 6.74902 17.0723 6.75195 17.8574 6.75781C18.6426 6.75781 19.082 6.75781 19.1758 6.75781Z" fill="#333333"/>
<path d="M28.9932 14V3.03125H25.2402V1.12402H35.1191V3.03125H31.3838V14H28.9932Z" fill="#333333"/>
<path d="M36.5078 14V1.12402H44.3125L44.2158 3.01367H38.8896V6.33594H43.9521V8.22559H38.8896V12.1016H44.4092L44.3301 14H36.5078Z" fill="#333333"/>
<path d="M46.6328 14V1.12402H49.4453L53.3389 10.4229L57.2588 1.12402H60.0361V14H57.8389V7.63672L57.9092 3.98926L57.584 4.95605L54.2881 13.1211H52.249L49.0234 4.91211L48.6982 3.94531L48.7773 7.67188V14H46.6328Z" fill="#333333"/>
<path d="M72.6133 14.1846C70.9258 14.1846 69.6455 13.7656 68.7725 12.9277C67.8994 12.084 67.4629 10.8975 67.4629 9.36816V1.12402H69.8535V9.16602C69.8535 10.2383 70.0703 11.0205 70.5039 11.5127C70.9434 12.0049 71.6611 12.251 72.6572 12.251C73.6357 12.251 74.3447 12.0049 74.7842 11.5127C75.2236 11.0146 75.4434 10.2295 75.4434 9.15723V1.12402H77.8252V9.38574C77.8252 10.9033 77.3799 12.084 76.4893 12.9277C75.5986 13.7656 74.3066 14.1846 72.6133 14.1846Z" fill="#333333"/>
<path d="M86.2363 14.1846C84.2734 14.1846 82.7383 13.5928 81.6309 12.4092C80.5293 11.2256 79.9785 9.60547 79.9785 7.54883C79.9785 6.24219 80.2363 5.09375 80.752 4.10352C81.2676 3.10742 82.0264 2.33105 83.0283 1.77441C84.0303 1.21777 85.2139 0.939453 86.5791 0.939453C88.1436 0.939453 89.4854 1.27637 90.6045 1.9502L89.8311 3.72559C88.7646 3.15137 87.6953 2.86426 86.623 2.86426C85.3223 2.86426 84.2998 3.28613 83.5557 4.12988C82.8115 4.97363 82.4395 6.12207 82.4395 7.5752C82.4395 9.0166 82.7705 10.1562 83.4326 10.9941C84.0947 11.832 85.0645 12.251 86.3418 12.251C87.1621 12.251 87.9062 12.1221 88.5742 11.8643V8.87598H85.876L85.8936 7.00391H90.8154V13.2178C90.0186 13.5459 89.2627 13.7891 88.5479 13.9473C87.8389 14.1055 87.0684 14.1846 86.2363 14.1846Z" fill="#333333"/>
<path d="M93.3115 14V1.08887H98.084C98.7344 1.08887 99.2969 1.11816 99.7715 1.17676C100.252 1.23535 100.706 1.34375 101.134 1.50195C101.567 1.6543 101.916 1.8623 102.18 2.12598C102.449 2.38965 102.66 2.73535 102.812 3.16309C102.971 3.58496 103.05 4.08594 103.05 4.66602C103.05 6.37695 102.273 7.50195 100.721 8.04102C101.037 8.39844 101.43 9.06055 101.898 10.0273L103.814 14H101.213L99.71 10.6338C99.1416 9.42676 98.79 8.71191 98.6553 8.48926C98.5557 8.4834 98.2246 8.48047 97.6621 8.48047L95.667 8.46289V14H93.3115ZM98.2949 6.75781C99.209 6.75781 99.8652 6.59668 100.264 6.27441C100.662 5.94629 100.861 5.42188 100.861 4.70117C100.861 4.06836 100.659 3.60254 100.255 3.30371C99.8506 3.00488 99.2324 2.85547 98.4004 2.85547H95.667V6.74902C95.7549 6.74902 96.1914 6.75195 96.9766 6.75781C97.7617 6.75781 98.2012 6.75781 98.2949 6.75781Z" fill="#333333"/>
<path d="M108.385 14V8.89355L103.929 1.12402H106.513L109.58 6.69629L112.665 1.12402H115.214L110.775 8.84961V14H108.385Z" fill="#333333"/>
<path d="M121.516 14.1846C119.828 14.1846 118.548 13.7656 117.675 12.9277C116.802 12.084 116.365 10.8975 116.365 9.36816V1.12402H118.756V9.16602C118.756 10.2383 118.973 11.0205 119.406 11.5127C119.846 12.0049 120.563 12.251 121.56 12.251C122.538 12.251 123.247 12.0049 123.687 11.5127C124.126 11.0146 124.346 10.2295 124.346 9.15723V1.12402H126.728V9.38574C126.728 10.9033 126.282 12.084 125.392 12.9277C124.501 13.7656 123.209 14.1846 121.516 14.1846Z" fill="#333333"/>
<path d="M129.391 14V1.12402H132.203L136.097 10.4229L140.017 1.12402H142.794V14H140.597V7.63672L140.667 3.98926L140.342 4.95605L137.046 13.1211H135.007L131.781 4.91211L131.456 3.94531L131.535 7.67188V14H129.391Z" fill="#333333"/>
<path d="M148.516 11.0205C149.154 11.835 150.098 12.2422 151.346 12.2422C152.594 12.2422 153.534 11.8379 154.167 11.0293C154.806 10.2148 155.125 9.06641 155.125 7.58398C155.125 6.08398 154.806 4.9209 154.167 4.09473C153.534 3.26855 152.597 2.85547 151.354 2.85547C150.106 2.85547 149.16 3.27148 148.516 4.10352C147.877 4.92969 147.558 6.08984 147.558 7.58398C147.558 9.06055 147.877 10.2061 148.516 11.0205ZM151.337 14.1846C149.397 14.1846 147.865 13.5986 146.74 12.4268C145.621 11.249 145.062 9.62598 145.062 7.55762C145.062 5.47754 145.624 3.85449 146.749 2.68848C147.874 1.52246 149.406 0.939453 151.346 0.939453C153.285 0.939453 154.814 1.52539 155.934 2.69727C157.053 3.86328 157.612 5.48633 157.612 7.56641C157.612 9.62305 157.05 11.2402 155.925 12.418C154.8 13.5957 153.271 14.1846 151.337 14.1846Z" fill="#333333"/>
<path d="M162.692 14L158.008 1.12402H160.46L163.185 9.07812C163.29 9.35352 163.533 10.1592 163.914 11.4951C163.938 11.4014 164.046 11.0176 164.239 10.3438C164.433 9.66406 164.559 9.24805 164.617 9.0957C164.688 8.89648 165.133 7.5752 165.953 5.13184C166.773 2.68262 167.222 1.34668 167.298 1.12402H169.724L165.101 14H162.692Z" fill="#333333"/>
</svg>
