<svg width="16" height="16" viewBox="0 0 16 16" fill="none" xmlns="http://www.w3.org/2000/svg">
<path d="M12.6822 11.318C12.3699 11.0189 12.066 10.7113 11.7708 10.3953C11.5228 10.1433 11.3735 9.96001 11.3735 9.96001L9.50683 9.06868C10.2542 8.2211 10.6666 7.13 10.6668 6.00001C10.6668 3.42734 8.5735 1.33334 6.00016 1.33334C3.42683 1.33334 1.3335 3.42734 1.3335 6.00001C1.3335 8.57268 3.42683 10.6667 6.00016 10.6667C7.1755 10.6667 8.24683 10.2267 9.06883 9.50734L9.96016 11.374C9.96016 11.374 10.1435 11.5233 10.3955 11.7713C10.6535 12.0133 10.9928 12.3407 11.3182 12.6827L12.2235 13.6107L12.6262 14.0413L14.0402 12.6273L13.6095 12.2247C13.3568 11.9767 13.0195 11.6473 12.6822 11.318ZM6.00016 9.33334C4.16216 9.33334 2.66683 7.83801 2.66683 6.00001C2.66683 4.16201 4.16216 2.66668 6.00016 2.66668C7.83816 2.66668 9.3335 4.16201 9.3335 6.00001C9.3335 7.83801 7.83816 9.33334 6.00016 9.33334Z" fill="#757575"/>
</svg>
